<svg width="16" height="16" viewBox="0 0 16 16" fill="none" xmlns="http://www.w3.org/2000/svg">
<g id="vuesax/outline/shopping-cart">
<g id="shopping-cart">
<path id="Vector" d="M12.1263 11.8333H5.02634C4.36634 11.8333 3.733 11.5533 3.28634 11.0667C2.83967 10.58 2.61301 9.92667 2.66634 9.26667L3.21968 2.62668C3.23968 2.42001 3.16634 2.22001 3.02634 2.06668C2.88634 1.91335 2.693 1.83334 2.48634 1.83334H1.33301C1.05967 1.83334 0.833008 1.60668 0.833008 1.33334C0.833008 1.06001 1.05967 0.833344 1.33301 0.833344H2.49301C2.97968 0.833344 3.43967 1.04001 3.76634 1.39334C3.94634 1.59334 4.07967 1.82668 4.15301 2.08668H12.4797C13.153 2.08668 13.773 2.35334 14.2263 2.83334C14.673 3.32001 14.8997 3.95335 14.8463 4.62668L14.4863 9.62668C14.413 10.8467 13.3463 11.8333 12.1263 11.8333ZM4.18634 3.08001L3.66634 9.34667C3.63301 9.73334 3.75967 10.1 4.01967 10.3867C4.27967 10.6733 4.63967 10.8267 5.02634 10.8267H12.1263C12.8197 10.8267 13.4463 10.24 13.4997 9.54668L13.8597 4.54668C13.8863 4.15335 13.7597 3.78002 13.4997 3.50668C13.2397 3.22668 12.8797 3.07333 12.4863 3.07333H4.18634V3.08001Z" fill="#417F56"/>
<path id="Vector_2" d="M10.8333 15.1667C10.1 15.1667 9.5 14.5667 9.5 13.8333C9.5 13.1 10.1 12.5 10.8333 12.5C11.5667 12.5 12.1667 13.1 12.1667 13.8333C12.1667 14.5667 11.5667 15.1667 10.8333 15.1667ZM10.8333 13.5C10.6467 13.5 10.5 13.6467 10.5 13.8333C10.5 14.02 10.6467 14.1667 10.8333 14.1667C11.02 14.1667 11.1667 14.02 11.1667 13.8333C11.1667 13.6467 11.02 13.5 10.8333 13.5Z" fill="#417F56"/>
<path id="Vector_3" d="M5.50033 15.1667C4.76699 15.1667 4.16699 14.5667 4.16699 13.8333C4.16699 13.1 4.76699 12.5 5.50033 12.5C6.23366 12.5 6.83366 13.1 6.83366 13.8333C6.83366 14.5667 6.23366 15.1667 5.50033 15.1667ZM5.50033 13.5C5.31366 13.5 5.16699 13.6467 5.16699 13.8333C5.16699 14.02 5.31366 14.1667 5.50033 14.1667C5.68699 14.1667 5.83366 14.02 5.83366 13.8333C5.83366 13.6467 5.68699 13.5 5.50033 13.5Z" fill="#417F56"/>
<path id="Vector_4" d="M14 5.83331H6C5.72667 5.83331 5.5 5.60665 5.5 5.33331C5.5 5.05998 5.72667 4.83331 6 4.83331H14C14.2733 4.83331 14.5 5.05998 14.5 5.33331C14.5 5.60665 14.2733 5.83331 14 5.83331Z" fill="#417F56"/>
</g>
</g>
</svg>
