<svg width="16" height="16" viewBox="0 0 16 16" fill="none" xmlns="http://www.w3.org/2000/svg">
<g id="vuesax/outline/user">
<g id="user">
<path id="Vector" d="M8.00033 8.50001C5.88699 8.50001 4.16699 6.78001 4.16699 4.66668C4.16699 2.55334 5.88699 0.833344 8.00033 0.833344C10.1137 0.833344 11.8337 2.55334 11.8337 4.66668C11.8337 6.78001 10.1137 8.50001 8.00033 8.50001ZM8.00033 1.83334C6.44033 1.83334 5.16699 3.10668 5.16699 4.66668C5.16699 6.22668 6.44033 7.50001 8.00033 7.50001C9.56033 7.50001 10.8337 6.22668 10.8337 4.66668C10.8337 3.10668 9.56033 1.83334 8.00033 1.83334Z" fill="#417F56"/>
<path id="Vector_2" d="M13.7268 15.1667C13.4534 15.1667 13.2268 14.94 13.2268 14.6667C13.2268 12.3667 10.8801 10.5 8.0001 10.5C5.1201 10.5 2.77344 12.3667 2.77344 14.6667C2.77344 14.94 2.54677 15.1667 2.27344 15.1667C2.0001 15.1667 1.77344 14.94 1.77344 14.6667C1.77344 11.82 4.56677 9.5 8.0001 9.5C11.4334 9.5 14.2268 11.82 14.2268 14.6667C14.2268 14.94 14.0001 15.1667 13.7268 15.1667Z" fill="#417F56"/>
</g>
</g>
</svg>
