<svg width="67" height="32" viewBox="0 0 67 32" fill="none" xmlns="http://www.w3.org/2000/svg">
<g id="Vector">
<path d="M0 6.9729C0 6.91718 0.0320745 6.88933 0.0962234 6.88933C0.179379 6.88933 0.311241 6.94383 0.491808 7.05284C2.16918 8.10901 4.34668 8.63709 7.02431 8.63709C8.66367 8.63709 10.2615 8.34761 11.8177 7.76866C12.0909 7.6645 12.3736 7.49493 12.6658 7.25995C12.9082 7.03225 13.1541 6.80696 13.4036 6.5841L13.4321 6.5405C13.4321 6.4654 13.2812 6.40606 12.9795 6.36245C12.8132 6.32612 12.6373 6.30068 12.452 6.28615C12.3356 6.26677 12.2049 6.205 12.06 6.10083C11.8984 6.00151 11.8129 5.89251 11.8034 5.77381V5.49039C11.8034 5.02286 12.0089 4.51294 12.4199 3.96064C12.831 3.40833 13.2503 3.08978 13.678 3.005C13.9084 3.10431 14.0237 3.26056 14.0237 3.47373C14.0237 3.56821 13.9987 3.70265 13.9488 3.87706C13.8871 4.06359 13.8098 4.16533 13.7172 4.18229C13.5271 3.98365 13.4024 3.88433 13.343 3.88433C13.1885 3.88433 12.951 4.06722 12.6302 4.433C12.3118 4.79637 12.1527 5.06162 12.1527 5.22877C12.1527 5.28448 12.161 5.31961 12.1776 5.33414C12.351 5.45284 12.5114 5.52188 12.6587 5.54126C13.1387 5.61151 13.3917 5.65148 13.4178 5.66117C13.7101 5.75079 13.8562 5.93974 13.8562 6.22801C13.8562 6.68827 13.6566 7.14247 13.2574 7.59061C12.9058 7.96124 12.4972 8.24345 12.0315 8.43724C11.2997 8.73036 10.4741 8.97623 9.55463 9.17487C8.59715 9.38319 7.74895 9.48736 7.01005 9.48736C5.01906 9.48736 3.45216 9.26328 2.30936 8.81514C2.05039 8.69644 1.88883 8.62256 1.82468 8.59349C1.39227 8.29553 1.04777 8.04724 0.79117 7.8486C0.263723 7.38834 0 7.09644 0 6.9729Z" fill="#417F56"/>
<path d="M14.5868 0.795761C14.6462 0.403331 14.7412 0.152612 14.8719 0.0436033C14.8932 0.0678274 14.9111 0.0847842 14.9253 0.0944739C14.9871 0.431188 15.0607 0.97623 15.1463 1.7296C15.2318 2.48054 15.3031 3.1564 15.3601 3.75715C15.4195 4.35791 15.4492 4.67525 15.4492 4.70916C15.4492 4.77941 15.4314 4.89084 15.3957 5.04345C15.3625 5.19364 15.2924 5.29538 15.1855 5.34868C15.1094 4.73338 15.0334 4.12173 14.9574 3.5137C14.8837 2.90568 14.803 2.30734 14.7151 1.7187C14.6295 1.12763 14.5868 0.819985 14.5868 0.795761Z" fill="#417F56"/>
<path d="M17.8227 4.59652C17.8227 4.39788 17.9071 4.07812 18.0757 3.63724C18.2611 3.20606 18.4202 2.91294 18.5533 2.75791C18.8693 2.92748 19.095 3.07888 19.2304 3.21211C19.4157 3.4059 19.5084 3.65662 19.5084 3.96427C19.5084 4.53111 19.3183 4.93565 18.9382 5.1779C18.9097 5.22634 18.8241 5.26389 18.6816 5.29054C18.5414 5.31476 18.4321 5.32687 18.3537 5.32687C18.185 5.32687 18.0496 5.24693 17.9474 5.08705C17.8643 4.93929 17.8227 4.77578 17.8227 4.59652ZM18.2682 4.26223C18.2682 4.31794 18.3003 4.37608 18.3644 4.43664C18.4309 4.49478 18.4832 4.52385 18.5212 4.52385H18.6317C18.8645 4.52385 19.0154 4.47419 19.0843 4.37487C19.0843 4.19561 19.0237 4.03815 18.9026 3.9025C18.7814 3.76442 18.6448 3.68085 18.4927 3.65178C18.343 3.91582 18.2682 4.1193 18.2682 4.26223Z" fill="#417F56"/>
<path d="M19.7044 7.53611C19.7044 7.48766 19.8779 7.41378 20.2247 7.31446C20.7451 7.14004 21.1026 6.99349 21.2974 6.87479C21.661 6.65677 21.9092 6.40606 22.0423 6.12263C22.066 6.05238 22.0779 6.01241 22.0779 6.00272C22.0779 5.69508 22.0506 5.44436 21.996 5.25057C21.9674 5.16821 21.8558 4.93081 21.661 4.53838C21.6918 4.14595 21.7453 3.90977 21.8213 3.82983L21.9674 3.92067C22.1052 4.13868 22.1837 4.2598 22.2027 4.28403C22.2906 4.38335 22.4117 4.45602 22.5662 4.50204C22.7562 4.57956 22.8786 4.60621 22.9332 4.58198V5.33414C22.7479 5.34383 22.565 5.32203 22.3844 5.26874V5.6103C22.3844 6.06086 22.2573 6.48236 22.0031 6.87479C21.7512 7.26722 21.4257 7.54701 21.0266 7.71416C20.1451 7.7408 19.7044 7.68145 19.7044 7.53611Z" fill="#417F56"/>
<path d="M22.7907 4.58198C22.9119 4.58683 23.0889 4.53717 23.3217 4.433C23.5545 4.32884 23.6935 4.27676 23.7387 4.27676C23.8266 4.27676 23.9786 4.32763 24.1948 4.42937C24.411 4.53111 24.5845 4.58198 24.7152 4.58198V5.33414C24.5655 5.33414 24.3849 5.27843 24.1735 5.16699C23.962 5.05556 23.8171 4.99985 23.7387 4.99985C23.703 4.99985 23.5807 5.05556 23.3716 5.16699C23.1625 5.27843 22.9903 5.33414 22.8548 5.33414H22.7907V4.58198ZM23.7957 6.5732C23.9074 6.24133 24.0095 6.05844 24.1022 6.02453C24.1853 6.06813 24.2756 6.12263 24.373 6.18804C24.4752 6.27282 24.5453 6.34913 24.5833 6.41696C24.5096 6.7997 24.4051 6.99107 24.2697 6.99107C24.2198 6.99107 24.1295 6.93899 23.9988 6.83482C23.8967 6.72581 23.829 6.63861 23.7957 6.5732ZM22.9404 6.90749C22.9404 6.79364 23.0283 6.60833 23.2041 6.35155C23.4726 6.5405 23.6448 6.67373 23.7208 6.75125V6.77668C23.7208 6.86389 23.6971 6.97048 23.6496 7.09644C23.5949 7.22967 23.5415 7.29629 23.4892 7.29629C23.4298 7.29629 23.3229 7.24542 23.1685 7.14368C23.0164 7.04194 22.9404 6.96321 22.9404 6.90749Z" fill="#417F56"/>
<path d="M24.5548 4.58198C24.9397 4.58198 25.3519 4.53232 25.7914 4.433C26.2666 4.30946 26.6598 4.15806 26.9711 3.9788C26.3628 3.77048 26.0183 3.66631 25.9376 3.66631C25.8354 3.66631 25.6762 3.70265 25.46 3.77532C25.2462 3.84799 25.081 3.88433 24.9646 3.88433C25.081 3.46768 25.1499 3.25087 25.1713 3.23391C25.2331 3.11522 25.3887 2.98925 25.6382 2.85602C25.7237 2.80757 25.8425 2.78335 25.9946 2.78335C26.0587 2.78335 26.3213 2.88509 26.7822 3.08857C27.293 3.32112 27.5995 3.45435 27.7016 3.48827C28.2315 3.65299 28.7352 3.73535 29.2127 3.73535C29.2579 3.77411 29.2828 3.8056 29.2876 3.82983C29.2876 3.91945 29.2258 4.09629 29.1022 4.36033H28.9811C28.6579 4.36033 28.4144 4.3349 28.2505 4.28403L28.2291 4.3894L28.2505 4.51658C28.3479 4.6159 28.4916 4.66556 28.6817 4.66556C28.9668 4.66556 29.2341 4.6377 29.4836 4.58198V5.33414L28.7031 5.34868C28.513 5.35352 28.3562 5.29054 28.2327 5.15973C28.1115 5.02892 28.0509 4.86662 28.0509 4.67282C28.0509 4.64133 28.0557 4.59531 28.0652 4.53475C28.077 4.47176 28.083 4.42332 28.083 4.3894V4.28403C27.8573 4.28403 27.5935 4.33611 27.2918 4.44027C26.8784 4.59531 26.5553 4.72975 26.3224 4.8436C25.8663 5.03255 25.5919 5.13914 25.4992 5.16336C25.188 5.27721 24.9005 5.33414 24.6368 5.33414H24.5548V4.58198ZM26.3688 6.5623C26.4757 6.17956 26.5874 5.9785 26.7038 5.95912C26.7774 5.96881 26.8748 6.00878 26.996 6.07903C27.1481 6.17835 27.2241 6.26313 27.2241 6.33338C27.2241 6.38668 27.1991 6.47994 27.1493 6.61317C27.1017 6.73429 27.0507 6.81908 26.996 6.86752H26.9604C26.8677 6.86752 26.756 6.83482 26.6254 6.76942C26.4543 6.71612 26.3688 6.64708 26.3688 6.5623Z" fill="#417F56"/>
<path d="M29.1806 2.2274C29.2876 1.84466 29.3992 1.6436 29.5156 1.62422C29.5893 1.63391 29.6867 1.67388 29.8079 1.74413C29.9599 1.84345 30.036 1.92824 30.036 1.99849C30.036 2.05178 30.011 2.14504 29.9611 2.27827C29.9136 2.39939 29.8625 2.48418 29.8079 2.53263H29.7722C29.6796 2.53263 29.5679 2.49992 29.4372 2.43452C29.2662 2.38123 29.1806 2.31219 29.1806 2.2274ZM29.3624 4.58198C29.6926 4.58683 29.8791 4.51537 29.9219 4.3676C29.9077 4.30704 29.8494 4.19319 29.7473 4.02604C29.6594 3.88554 29.6083 3.76805 29.594 3.67358C29.6487 3.51612 29.714 3.3405 29.7901 3.14671H29.8221C29.929 3.14671 30.0312 3.30295 30.1286 3.61544C30.2308 3.88917 30.2819 4.10477 30.2819 4.26223C30.2819 4.60378 30.2284 4.85935 30.1215 5.02892C29.9932 5.2324 29.7734 5.33414 29.4622 5.33414H29.3624V4.58198Z" fill="#417F56"/>
<path d="M30.036 6.85299C30.687 6.81181 31.0707 6.77668 31.1871 6.74761C31.5316 6.63861 31.8678 6.4218 32.1956 6.0972C32.5259 5.7726 32.7492 5.43104 32.8656 5.07252C32.754 4.87388 32.6471 4.67888 32.5449 4.48751C32.3786 4.16775 32.2954 3.95821 32.2954 3.85889L32.3204 3.77896C32.3299 3.75958 32.3608 3.67964 32.413 3.53914C32.4534 3.41559 32.4926 3.35382 32.5306 3.35382C32.6423 3.35382 32.7742 3.51976 32.9262 3.85163C33.0807 4.13989 33.1579 4.3567 33.1579 4.50204C33.1579 5.46858 32.8704 6.24739 32.2954 6.83845C32.0246 7.10492 31.7454 7.23815 31.4579 7.23815C31.2869 7.23815 30.8533 7.17638 30.1571 7.05284C30.1381 7.0383 30.0977 6.99349 30.036 6.91839V6.85299ZM31.6183 2.56533C31.7252 2.18259 31.8369 1.98153 31.9533 1.96215C32.0269 1.97184 32.1244 2.01181 32.2455 2.08206C32.3976 2.18138 32.4736 2.26616 32.4736 2.33641C32.4736 2.3897 32.4487 2.48297 32.3988 2.6162C32.3513 2.73732 32.3002 2.8221 32.2455 2.87055H32.2099C32.1172 2.87055 32.0056 2.83785 31.8749 2.77244C31.7038 2.71915 31.6183 2.65011 31.6183 2.56533Z" fill="#417F56"/>
<path d="M25.0608 6.9729C25.0608 6.91718 25.0929 6.88933 25.1571 6.88933C25.2402 6.88933 25.3721 6.94383 25.5527 7.05284C27.23 8.10901 29.4075 8.63709 32.0852 8.63709C33.7245 8.63709 35.3223 8.34761 36.8785 7.76866C37.1517 7.6645 37.4345 7.49493 37.7267 7.25995C37.969 7.03225 38.2149 6.80696 38.4644 6.5841L38.4929 6.5405C38.4929 6.4654 38.3421 6.40606 38.0403 6.36245C37.874 6.32612 37.6982 6.30068 37.5129 6.28615C37.3965 6.26677 37.2658 6.205 37.1208 6.10083C36.9593 6.00151 36.8738 5.89251 36.8643 5.77381V5.49039C36.8643 5.02286 37.0698 4.51294 37.4808 3.96064C37.8918 3.40833 38.3112 3.08978 38.7388 3.005C38.9693 3.10431 39.0845 3.26056 39.0845 3.47373C39.0845 3.56821 39.0596 3.70265 39.0097 3.87706C38.9479 4.06359 38.8707 4.16533 38.778 4.18229C38.588 3.98365 38.4632 3.88433 38.4038 3.88433C38.2494 3.88433 38.0118 4.06722 37.6911 4.433C37.3727 4.79637 37.2135 5.06162 37.2135 5.22877C37.2135 5.28448 37.2218 5.31961 37.2385 5.33414C37.4119 5.45284 37.5723 5.52188 37.7196 5.54126C38.1995 5.61151 38.4525 5.65148 38.4787 5.66117C38.7709 5.75079 38.917 5.93974 38.917 6.22801C38.917 6.68827 38.7174 7.14247 38.3183 7.59061C37.9667 7.96124 37.558 8.24345 37.0923 8.43724C36.3606 8.73036 35.5349 8.97623 34.6155 9.17487C33.658 9.38319 32.8098 9.48736 32.0709 9.48736C30.0799 9.48736 28.513 9.26328 27.3702 8.81514C27.1112 8.69644 26.9497 8.62256 26.8855 8.59349C26.4531 8.29553 26.1086 8.04724 25.852 7.8486C25.3246 7.38834 25.0608 7.09644 25.0608 6.9729Z" fill="#417F56"/>
<path d="M39.4872 0.741257C39.5561 0.346404 39.6048 0.0993187 39.6333 0C39.6975 0.0581378 39.7415 0.162301 39.7652 0.31249C39.7961 0.380318 39.8187 0.489326 39.8329 0.639515C40.0753 2.44905 40.1988 3.39379 40.2036 3.47373C40.2725 3.9461 40.3259 4.21378 40.3639 4.27676C40.4708 4.48024 40.6752 4.58198 40.9769 4.58198V5.33414C40.5493 5.33414 40.2891 5.24936 40.1964 5.07979C40.1228 4.97562 40.0479 4.73823 39.9719 4.3676C39.9505 4.20288 39.9161 3.94731 39.8686 3.60091C39.6975 2.13293 39.5704 1.17971 39.4872 0.741257Z" fill="#417F56"/>
<path d="M40.8379 4.58198C41.0304 4.58198 41.2466 4.55049 41.4865 4.48751C41.774 4.41726 41.976 4.33732 42.0924 4.24769C41.9665 3.96911 41.9035 3.81287 41.9035 3.77896C41.9035 3.66995 41.9522 3.53793 42.0496 3.38289C42.1518 3.20121 42.2124 3.07525 42.2314 3.005C42.1625 2.96139 42.128 2.88388 42.128 2.77244C42.128 2.65859 42.1625 2.5302 42.2314 2.38728C42.2979 2.21771 42.3775 2.13293 42.4702 2.13293C42.7624 2.13293 43.101 2.36185 43.4859 2.81968C43.7923 3.17578 43.9527 3.36351 43.967 3.38289C44.1665 3.65662 44.2663 3.89039 44.2663 4.08418C44.2663 4.17381 44.176 4.3676 43.9955 4.66556C43.9432 4.73338 43.8482 4.7673 43.7104 4.7673C43.2447 4.7673 42.8954 4.70795 42.6626 4.58925C42.3846 4.74428 42.109 4.89811 41.8358 5.05072C41.4462 5.23967 41.1349 5.33414 40.9021 5.33414H40.8379V4.58198ZM43.0119 4.10598C43.4443 4.21983 43.7044 4.27676 43.7923 4.27676C43.8565 4.27676 43.8886 4.25254 43.8886 4.20409C43.8886 4.10477 43.7781 3.94126 43.5571 3.71355C43.3979 3.53914 43.2399 3.39985 43.0831 3.29569C43.1235 3.56215 43.0998 3.83225 43.0119 4.10598ZM42.128 3.79349C42.128 3.84921 42.1375 3.87948 42.1565 3.88433C42.3038 3.96669 42.4523 3.99818 42.602 3.9788C42.7636 3.8698 42.8444 3.75594 42.8444 3.63724C42.8444 3.53793 42.8194 3.44345 42.7695 3.35382C42.7172 3.26904 42.6495 3.22665 42.5664 3.22665C42.4927 3.22665 42.4013 3.30174 42.292 3.45193C42.1827 3.5997 42.128 3.71355 42.128 3.79349Z" fill="#417F56"/>
<path d="M34.9434 6.83845C34.9434 6.80212 34.9707 6.78395 35.0253 6.78395C35.0942 6.78395 35.2427 6.84693 35.4708 6.9729C36.73 7.6221 37.8099 8.05814 38.7103 8.281C39.7129 8.51839 40.8569 8.63709 42.1423 8.63709C44.1166 8.63709 45.6776 8.45057 46.8252 8.07752C47.9751 7.70689 48.847 7.0056 49.441 5.97366C49.441 5.65148 49.3412 5.29417 49.1416 4.90174C48.9421 4.50931 48.8423 4.29129 48.8423 4.24769C48.8423 4.15322 48.9052 3.94247 49.0312 3.61544C49.0217 3.50643 49.043 3.45193 49.0953 3.45193C49.1927 3.45193 49.3412 3.71718 49.5408 4.24769C49.7451 4.75397 49.8473 5.09432 49.8473 5.26874C49.9304 5.94216 49.6453 6.65556 48.992 7.40893C48.341 8.16472 47.298 8.72309 45.8629 9.08403C44.6085 9.33353 43.3944 9.45829 42.2207 9.45829C41.287 9.45829 40.4019 9.41105 39.5656 9.31658C38.4418 9.16154 37.5996 8.93505 37.0389 8.63709C36.7086 8.46995 36.3439 8.21923 35.9448 7.88493C35.7642 7.71779 35.5789 7.55912 35.3888 7.40893C35.0918 7.13762 34.9434 6.94746 34.9434 6.83845ZM47.57 1.7514C47.57 1.70295 47.6223 1.60121 47.7268 1.44618C47.8313 1.28872 47.8979 1.20999 47.9264 1.20999C47.9668 1.20999 48.0666 1.25238 48.2257 1.33717C48.3968 1.43649 48.4823 1.51764 48.4823 1.58062C48.4823 1.62665 48.4336 1.72354 48.3362 1.87131C48.2483 2.04088 48.1723 2.12566 48.1081 2.12566C48.0511 2.12566 47.9466 2.07721 47.7945 1.98032C47.6448 1.88342 47.57 1.80712 47.57 1.7514Z" fill="#417F56"/>
<path d="M50.3961 0.795761C50.4555 0.403331 50.5505 0.152612 50.6812 0.0436033C50.7026 0.0678274 50.7204 0.0847842 50.7347 0.0944739C50.7965 0.431188 50.8701 0.97623 50.9556 1.7296C51.0412 2.48054 51.1124 3.1564 51.1695 3.75715C51.2289 4.35791 51.2586 4.67525 51.2586 4.70916C51.2586 4.77941 51.2407 4.89084 51.2051 5.04345C51.1718 5.19364 51.1018 5.29538 50.9948 5.34868C50.9188 4.73338 50.8428 4.12173 50.7668 3.5137C50.6931 2.90568 50.6123 2.30734 50.5244 1.7187C50.4389 1.12763 50.3961 0.819985 50.3961 0.795761Z" fill="#417F56"/>
<path d="M51.0412 6.85299C51.6922 6.81181 52.0759 6.77668 52.1923 6.74761C52.5368 6.63861 52.873 6.4218 53.2009 6.0972C53.5311 5.7726 53.7544 5.43104 53.8708 5.07252C53.7592 4.87388 53.6523 4.67888 53.5501 4.48751C53.3838 4.16775 53.3006 3.95821 53.3006 3.85889L53.3256 3.77896C53.3351 3.75958 53.366 3.67964 53.4182 3.53914C53.4586 3.41559 53.4978 3.35382 53.5359 3.35382C53.6475 3.35382 53.7794 3.51976 53.9314 3.85163C54.0859 4.13989 54.1631 4.3567 54.1631 4.50204C54.1631 5.46858 53.8756 6.24739 53.3006 6.83845C53.0298 7.10492 52.7506 7.23815 52.4631 7.23815C52.2921 7.23815 51.8585 7.17638 51.1623 7.05284C51.1433 7.0383 51.1029 6.99349 51.0412 6.91839V6.85299Z" fill="#417F56"/>
<path d="M54.1453 6.79122C54.1643 6.77668 54.1999 6.76942 54.2522 6.76942H54.6121C55.1182 6.76942 55.4615 6.74519 55.6421 6.69674C55.8797 6.61681 56.1707 6.42786 56.5152 6.1299C56.8763 5.8271 57.0985 5.56185 57.1816 5.33414C56.7777 5.33414 56.5093 5.30628 56.3762 5.25057C56.1339 5.16821 56.0127 4.95746 56.0127 4.61832C56.0127 4.40515 56.0911 4.16533 56.2479 3.89886C56.4166 3.60091 56.5865 3.45193 56.7575 3.45193C56.8835 3.45193 57.0272 3.60818 57.1888 3.92067C57.3385 4.16291 57.4382 4.38335 57.4881 4.58198H57.677V5.33414H57.4133C57.38 5.67086 57.1935 6.04754 56.8538 6.46419C56.5069 6.85662 56.1731 7.11219 55.8523 7.23089C55.5649 7.18244 55.2358 7.12309 54.8652 7.05284C54.3852 6.94383 54.1453 6.85662 54.1453 6.79122ZM56.394 4.44027C56.5057 4.53475 56.6316 4.58198 56.7718 4.58198C56.7956 4.58198 56.8253 4.57714 56.8609 4.56745C56.8609 4.49235 56.8431 4.41847 56.8074 4.3458C56.7552 4.24648 56.697 4.19682 56.6328 4.19682C56.5164 4.19682 56.4368 4.27797 56.394 4.44027Z" fill="#417F56"/>
<path d="M57.5523 4.58198C57.6735 4.58683 57.8505 4.53717 58.0833 4.433C58.3161 4.32884 58.4551 4.27676 58.5003 4.27676C58.5882 4.27676 58.7402 4.32763 58.9564 4.42937C59.1726 4.53111 59.3461 4.58198 59.4768 4.58198V5.33414C59.3271 5.33414 59.1465 5.27843 58.9351 5.16699C58.7236 5.05556 58.5787 4.99985 58.5003 4.99985C58.4646 4.99985 58.3423 5.05556 58.1332 5.16699C57.9241 5.27843 57.7519 5.33414 57.6164 5.33414H57.5523V4.58198ZM58.4076 2.49992C58.5193 2.16805 58.6214 1.98516 58.7141 1.95125C58.7972 1.99485 58.8875 2.04936 58.9849 2.11476C59.0871 2.19955 59.1572 2.27585 59.1952 2.34368C59.1216 2.72642 59.017 2.91779 58.8816 2.91779C58.8317 2.91779 58.7414 2.86571 58.6107 2.76154C58.5086 2.65254 58.4409 2.56533 58.4076 2.49992ZM57.5523 2.83422C57.5523 2.72036 57.6402 2.53505 57.816 2.27827C58.0845 2.46722 58.2567 2.60045 58.3328 2.67797V2.70341C58.3328 2.79061 58.309 2.8972 58.2615 3.02316C58.2068 3.1564 58.1534 3.22301 58.1011 3.22301C58.0417 3.22301 57.9348 3.17214 57.7804 3.0704C57.6283 2.96866 57.5523 2.88993 57.5523 2.83422Z" fill="#417F56"/>
<path d="M59.3164 4.58198C59.6538 4.58198 59.9757 4.54201 60.2822 4.46207C60.7383 4.35307 61.0033 4.19682 61.0769 3.99334C61.1506 3.78986 61.2183 3.66389 61.28 3.61544C61.3014 3.62998 61.3121 3.66268 61.3121 3.71355C61.3121 3.87101 61.2682 4.08176 61.1803 4.3458C61.2468 4.37002 61.305 4.38213 61.3549 4.38213C61.8514 4.38213 62.1971 4.30704 62.392 4.15685C62.5131 4.05753 62.6058 3.89402 62.6699 3.66631C62.7317 3.4483 62.8279 3.31264 62.9586 3.25935L62.9764 3.28842C62.9859 3.30295 62.9907 3.31991 62.9907 3.33929C62.9907 3.41438 62.9586 3.59606 62.8945 3.88433C62.9634 3.99334 63.0335 4.05995 63.1047 4.08418C63.1261 4.08902 63.2307 4.11325 63.4184 4.15685L63.6037 4.08418C63.6037 4.03331 63.593 3.9788 63.5716 3.92067C63.5526 3.86011 63.5431 3.81771 63.5431 3.79349C63.5431 3.76442 63.5752 3.65057 63.6393 3.45193C63.7225 3.22422 63.764 3.1031 63.764 3.08857C63.8163 3.08857 63.8698 3.17214 63.9244 3.33929C63.9719 3.47252 63.9957 3.58153 63.9957 3.66631C63.9957 3.95942 63.9446 4.22468 63.8424 4.46207C63.707 4.77456 63.5122 4.93081 63.258 4.93081C63.132 4.93081 62.9182 4.83755 62.6165 4.65102C62.5428 4.8327 62.3706 4.9732 62.0997 5.07252C61.8907 5.14277 61.6685 5.1779 61.4333 5.1779C61.2005 5.1779 60.9842 5.14277 60.7847 5.07252C60.3238 5.24693 59.8937 5.33414 59.4946 5.33414H59.3164V4.58198Z" fill="#417F56"/>
<path d="M63.8781 6.85299C64.5291 6.81181 64.9128 6.77668 65.0292 6.74761C65.3737 6.63861 65.7099 6.4218 66.0378 6.0972C66.368 5.7726 66.5913 5.43104 66.7078 5.07252C66.5961 4.87388 66.4892 4.67888 66.387 4.48751C66.2207 4.16775 66.1376 3.95821 66.1376 3.85889L66.1625 3.77896C66.172 3.75958 66.2029 3.67964 66.2552 3.53914C66.2955 3.41559 66.3347 3.35382 66.3728 3.35382C66.4844 3.35382 66.6163 3.51976 66.7683 3.85163C66.9228 4.13989 67 4.3567 67 4.50204C67 5.46858 66.7125 6.24739 66.1376 6.83845C65.8667 7.10492 65.5875 7.23815 65.3001 7.23815C65.129 7.23815 64.6954 7.17638 63.9992 7.05284C63.9802 7.0383 63.9399 6.99349 63.8781 6.91839V6.85299Z" fill="#417F56"/>
<path d="M13.8121 25.3375H12.6265C11.1085 25.3375 9.7836 24.8612 8.65184 23.9088C7.59193 23.0205 6.83742 21.8299 6.38831 20.3371C6.1907 19.6777 5.75506 19.348 5.08139 19.348C4.68617 19.348 4.34934 19.4854 4.07089 19.7602C3.80142 20.0257 3.66669 20.3554 3.66669 20.7492C3.66669 21.143 3.80142 21.4819 4.07089 21.7658C4.34934 22.0405 4.68617 22.1779 5.08139 22.1779H7.25061V25.3375H5.2296C3.97208 25.3375 2.88523 24.9024 1.96904 24.0324C1.06183 23.1624 0.608229 22.068 0.608229 20.7492C0.608229 19.4946 1.04387 18.4231 1.91515 17.5347C2.78643 16.6464 3.84184 16.2022 5.08139 16.2022C6.04249 16.2022 6.92275 16.5044 7.72217 17.1089C8.52159 17.7042 9.06951 18.4734 9.36593 19.4167C9.92282 21.2575 11.0097 22.1779 12.6265 22.1779H13.8121V25.3375Z" fill="#417F56"/>
<path d="M19.6865 13.6608H18.1506C17.7284 13.6608 17.3646 13.5097 17.0592 13.2075C16.7538 12.8961 16.6011 12.5252 16.6011 12.0948C16.6011 11.6644 16.7538 11.2935 17.0592 10.9821C17.3646 10.6707 17.7284 10.515 18.1506 10.515C18.5727 10.515 18.932 10.6707 19.2284 10.9821C19.5338 11.2935 19.6865 11.6644 19.6865 12.0948V13.6608ZM24.995 25.3375H23.7959C22.5474 25.3375 21.3977 24.9482 20.3467 24.1698V25.3375H12.6265V22.1779H17.2613V16.2984H20.3467V18.2628C20.3467 19.3893 20.6656 20.3234 21.3033 21.0652C21.9411 21.807 22.7719 22.1779 23.7959 22.1779H24.995V25.3375Z" fill="#417F56"/>
<path d="M36.0702 25.3375H34.871C33.6225 25.3375 32.4728 24.9482 31.4218 24.1698V25.3375H23.7016V22.1779H28.3364V16.2984H31.4218V18.2628C31.4218 19.3893 31.7407 20.3234 32.3785 21.0652C33.0162 21.807 33.8471 22.1779 34.871 22.1779H36.0702V25.3375ZM33.5372 30.9285H31.9743C31.5521 30.9285 31.1883 30.7728 30.8829 30.4614C30.5865 30.1501 30.4383 29.7792 30.4383 29.3487C30.4383 28.9091 30.5865 28.5382 30.8829 28.236C31.1883 27.9338 31.5521 27.7827 31.9743 27.7827C32.4054 27.7827 32.7737 27.9338 33.0791 28.236C33.3845 28.5382 33.5372 28.9091 33.5372 29.3487V30.9285ZM30.0341 30.9285H28.4847C28.0535 30.9285 27.6852 30.7728 27.3798 30.4614C27.0834 30.1501 26.9352 29.7792 26.9352 29.3487C26.9352 28.9091 27.0834 28.5382 27.3798 28.236C27.6852 27.9338 28.0535 27.7827 28.4847 27.7827C28.9068 27.7827 29.2706 27.9338 29.576 28.236C29.8814 28.5382 30.0341 28.9091 30.0341 29.3487V30.9285Z" fill="#417F56"/>
<path d="M50.0825 25.3375H34.7767V22.1779H46.8219C46.5614 21.372 46.0944 20.7126 45.4207 20.1997C44.756 19.6869 43.9925 19.4305 43.1302 19.4305L38.5358 19.4442V16.2984H43.1302C45.0434 16.2984 46.6782 16.9898 48.0345 18.3727C49.3998 19.7464 50.0825 21.4132 50.0825 23.373V25.3375ZM42.1871 14.6774H40.6511C40.2289 14.6774 39.8652 14.5263 39.5598 14.2241C39.2544 13.9127 39.1017 13.5418 39.1017 13.1114C39.1017 12.6809 39.2544 12.31 39.5598 11.9986C39.8652 11.6873 40.2289 11.5316 40.6511 11.5316C41.0733 11.5316 41.4326 11.6873 41.729 11.9986C42.0344 12.31 42.1871 12.6809 42.1871 13.1114V14.6774Z" fill="#417F56"/>
<path d="M59.8433 25.3375H58.6442C57.4046 25.3375 56.2549 24.9482 55.195 24.1698V24.9253C55.195 26.9035 54.4944 28.5749 53.0932 29.9394C51.7009 31.3131 49.9584 32 47.8655 32V28.8542C49.114 28.8542 50.1335 28.4741 50.924 27.714C51.7234 26.9539 52.1231 26.0243 52.1231 24.9253V16.2984H55.195V18.2628C55.195 19.3893 55.5139 20.3234 56.1516 21.0652C56.7983 21.807 57.6292 22.1779 58.6442 22.1779H59.8433V25.3375Z" fill="#417F56"/>
<path d="M66.3644 25.3375H58.6442V22.1779H63.279V16.2984H66.3644V25.3375ZM66.4992 13.4411H64.9363C64.5141 13.4411 64.1503 13.2854 63.8449 12.974C63.5485 12.6626 63.4003 12.2917 63.4003 11.8613C63.4003 11.4217 63.5485 11.0508 63.8449 10.7486C64.1503 10.4463 64.5141 10.2952 64.9363 10.2952C65.3674 10.2952 65.7357 10.4463 66.0411 10.7486C66.3465 11.0508 66.4992 11.4217 66.4992 11.8613V13.4411ZM62.9961 13.4411H61.4467C61.0155 13.4411 60.6472 13.2854 60.3418 12.974C60.0454 12.6626 59.8972 12.2917 59.8972 11.8613C59.8972 11.4217 60.0454 11.0508 60.3418 10.7486C60.6472 10.4463 61.0155 10.2952 61.4467 10.2952C61.8688 10.2952 62.2326 10.4463 62.538 10.7486C62.8434 11.0508 62.9961 11.4217 62.9961 11.8613V13.4411Z" fill="#417F56"/>
</g>
</svg>
